<?xml version="1.0" encoding="UTF-8"?>
<svg id="a" data-name="Layer 1" xmlns="http://www.w3.org/2000/svg" viewBox="0 0 28 28">
  <defs>
    <style>
      .b, .c {
        fill: #94b858;
      }

      .c {
        isolation: isolate;
        opacity: .5;
      }
    </style>
  </defs>
  <path class="c" d="M26.76,7.78l-3.98,3.36,1.22,5.02c.08.37-.15.73-.51.82-.17.04-.36,0-.51-.08l-4.48-2.69-4.47,2.69c-.32.2-.74.1-.94-.22-.09-.15-.12-.34-.08-.51l1.22-5.02-3.98-3.36c-.28-.24-.32-.66-.08-.95.12-.14.29-.23.47-.24l5.22-.41,2.01-4.77c.15-.35.56-.51.91-.36.16.07.29.2.36.36l2.01,4.77,5.23.41c.37.03.65.35.62.72-.01.18-.1.35-.24.47Z"/>
  <path class="b" d="M27.92,6.76c-.21-.65-.79-1.11-1.47-1.16l-4.62-.36-1.78-4.21c-.37-.86-1.36-1.26-2.22-.89-.4.17-.72.49-.89.89l-1.78,4.21-4.62.36c-.92.07-1.61.87-1.55,1.79.03.45.25.86.59,1.16l3.51,2.96-1.07,4.42c-.16.66.09,1.34.64,1.74.55.41,1.29.44,1.87.09l3.96-2.38,3.96,2.38c.59.35,1.32.32,1.88-.09.54-.4.79-1.08.64-1.74l-1.07-4.42,3.51-2.96c.52-.44.72-1.14.51-1.79ZM22.14,10.38c-.29.24-.42.63-.33,1l1.03,4.28-3.83-2.3c-.32-.19-.71-.19-1.03,0l-3.83,2.3,1.03-4.28c.09-.37-.04-.76-.33-1l-3.36-2.84,4.44-.35c.37-.03.7-.26.84-.61l1.72-4.08,1.72,4.08c.15.34.47.58.84.61l4.44.35-3.37,2.84ZM9.01,13.4l-7.3,7.31c-.39.39-1.02.39-1.42,0-.39-.39-.39-1.02,0-1.42l7.31-7.31c.39-.39,1.02-.39,1.41,0s.39,1.02,0,1.41h0ZM10.36,19.63c.39.39.39,1.02,0,1.41l-6.65,6.66c-.39.39-1.02.39-1.42,0s-.39-1.02,0-1.42h0l6.66-6.66c.39-.39,1.02-.39,1.41,0h0ZM19.49,19.51c.39.39.39,1.02,0,1.41h0s-6.78,6.79-6.78,6.79c-.39.39-1.02.39-1.41,0-.39-.39-.39-1.02,0-1.42h0l6.79-6.78c.39-.39,1.02-.39,1.41,0,0,0,0,0,0,0h0Z"/>
</svg>