<?xml version="1.0" encoding="UTF-8"?>
<svg id="a" data-name="Layer_1" xmlns="http://www.w3.org/2000/svg" viewBox="0 0 32 32">
  <defs>
    <style>
      .b {
        fill: #de9727;
        isolation: isolate;
      }
    </style>
  </defs>
  <path class="b" d="M31.44,16.07c0,8.57-6.94,15.51-15.51,15.51S.42,24.64.42,16.07,7.36.56,15.93.56c0,4.28,3.47,7.75,7.75,7.75,0,4.28,3.47,7.75,7.75,7.75Z"/>
  <path d="M21.61,21.46c.72.72.72,1.89,0,2.61-.72.72-1.89.72-2.61,0-.72-.72-.72-1.89,0-2.61.72-.72,1.89-.72,2.61,0,0,0,0,0,0,0ZM9.15,20.23c-.72.72-.72,1.89,0,2.61s1.89.72,2.61,0c.72-.72.72-1.89,0-2.61-.72-.72-1.89-.72-2.61,0,0,0,0,0,0,0h0ZM10.54,14.23c.72-.72.72-1.89,0-2.61-.72-.72-1.89-.72-2.61,0-.72.72-.72,1.89,0,2.61.72.72,1.89.72,2.61,0,0,0,0,0,0,0h0ZM17.92,14.08c-.72-.72-1.89-.72-2.61,0-.72.72-.72,1.89,0,2.61.72.72,1.89.72,2.61,0,.72-.72.72-1.89,0-2.61,0,0,0,0,0,0ZM32,16c0,8.84-7.16,16-16,16S0,24.84,0,16,7.16,0,16,0c.68,0,1.23.55,1.23,1.23,0,3.4,2.76,6.15,6.15,6.15.68,0,1.23.55,1.23,1.23,0,3.4,2.76,6.15,6.15,6.15.68,0,1.23.55,1.23,1.23ZM29.49,17.14c-3.79-.57-6.74-3.57-7.26-7.37-3.79-.52-6.79-3.47-7.37-7.26C7.41,3.14,1.88,9.69,2.51,17.14c.63,7.45,7.18,12.98,14.63,12.35,6.58-.55,11.8-5.77,12.35-12.35Z"/>
</svg>